<svg id="Layer_1" data-name="Layer 1" xmlns="http://www.w3.org/2000/svg" viewBox="0 0 64 52"><title>scale</title><path d="M32,16V56M22,56H42M28,12H12L2,32" transform="translate(0 -6)" style="fill:none;stroke:#fff;stroke-linecap:round;stroke-linejoin:round;stroke-width:4px"/><circle cx="32" cy="6" r="4" style="fill:none;stroke:#fff;stroke-linecap:round;stroke-linejoin:round;stroke-width:4px"/><path d="M12,12,22,32M36,12H52L62,32M52,12,42,32" transform="translate(0 -6)" style="fill:none;stroke:#fff;stroke-linecap:round;stroke-linejoin:round;stroke-width:4px"/><path d="M12,42A10,10,0,0,0,22,32H2A10,10,0,0,0,12,42Zm40,0A10,10,0,0,1,42,32H62A10,10,0,0,1,52,42Z" transform="translate(0 -6)" style="fill:none;stroke:#fff;stroke-linecap:round;stroke-linejoin:round;stroke-width:4px"/></svg>