<svg id="Layer_1" data-name="Layer 1" xmlns="http://www.w3.org/2000/svg" viewBox="0 0 64 64"><title>bandage</title><path d="M47.94,32,58.7,42.75A11.27,11.27,0,1,1,42.76,58.69L32,47.94M16.06,32,5.3,21.24A11.27,11.27,0,0,1,21.24,5.3L32,16.05" transform="translate(0 0.01)" style="fill:none;stroke:#fff;stroke-linecap:round;stroke-linejoin:round;stroke-width:4px"/><rect x="-5.76" y="20.72" width="75.51" height="22.55" rx="11.27" ry="11.27" transform="translate(-13.25 32) rotate(-45)" style="fill:none;stroke:#fff;stroke-linecap:round;stroke-linejoin:round;stroke-width:4px"/><path d="M28.07,44l-8-8m15.9-16L44,28.07" transform="translate(0 0.01)" style="fill:none;stroke:#fff;stroke-linecap:round;stroke-linejoin:round;stroke-width:4px"/><circle cx="32.27" cy="24.44" r="1.03" style="fill:none;stroke:#fff;stroke-linecap:round;stroke-linejoin:round;stroke-width:4px"/><circle cx="39.56" cy="31.73" r="1.03" style="fill:none;stroke:#fff;stroke-linecap:round;stroke-linejoin:round;stroke-width:4px"/><circle cx="24.99" cy="31.73" r="1.03" style="fill:none;stroke:#fff;stroke-linecap:round;stroke-linejoin:round;stroke-width:4px"/><circle cx="32.27" cy="31.73" r="1.03" style="fill:none;stroke:#fff;stroke-linecap:round;stroke-linejoin:round;stroke-width:4px"/><circle cx="32.27" cy="39.01" r="1.03" style="fill:none;stroke:#fff;stroke-linecap:round;stroke-linejoin:round;stroke-width:4px"/></svg>